<svg width="40" height="40" viewBox="0 0 40 40" fill="none" xmlns="http://www.w3.org/2000/svg">
<circle cx="20" cy="20" r="19.5" stroke="#219653"/>
<path d="M29.9712 12.6106C29.9543 12.3483 29.787 12.122 29.5464 12.036C29.3058 11.95 29.0387 12.0212 28.8684 12.2166C28.4307 12.7189 27.8774 13.0593 27.3158 13.2146C26.5349 12.4618 25.4855 12 24.3324 12C21.8576 12 19.853 14.0742 19.853 16.6307V17.2058C16.0641 16.9035 14.0379 13.9321 13.4912 12.4246C13.4028 12.1809 13.1829 12.0145 12.9312 12.0009C12.6796 11.9873 12.444 12.129 12.3314 12.3618C11.0056 15.1036 10.8013 17.7629 11.7649 20.0274C12.6091 22.0111 14.3067 23.5913 16.7127 24.6381C15.6192 25.4382 13.7788 26.3846 11.6334 26.3846C11.3544 26.3846 11.1082 26.5731 11.0273 26.8488C10.9463 27.1244 11.0497 27.4223 11.2817 27.5822C13.3389 29.0003 15.4949 29.0001 17.5003 29L17.5617 29C23.7185 29 28.7079 23.8396 28.7079 17.476V16.8505C29.1682 16.3675 29.5266 15.873 29.7463 15.2338C29.9913 14.5205 30.0407 13.6935 29.9712 12.6106Z" fill="#219653"/>
</svg>
