<svg width="40" height="40" viewBox="0 0 40 40" fill="none" xmlns="http://www.w3.org/2000/svg">
<circle cx="20" cy="20" r="19.5" stroke="#219653"/>
<path d="M28.7131 18.9131C28.7131 18.5252 28.6485 18.0727 28.6485 17.5556C28.5839 17.0384 28.5192 16.5212 28.4545 16.0687C28.3253 15.5515 28.1313 15.1636 27.7434 14.8404C27.4202 14.5172 26.9677 14.3232 26.5152 14.2586C25.0283 14.0646 22.8303 14 19.8566 14C16.8828 14 14.6202 14.0646 13.198 14.2586C12.7455 14.3232 12.2929 14.5172 11.9697 14.8404C11.6465 15.1636 11.3879 15.5515 11.2586 16.0687C11.1293 16.5212 11.0647 16.9737 11.0647 17.5556C11 18.0727 11 18.5252 11 18.9131C11 19.301 11 19.7535 11 20.4C11 21.0465 11 21.5636 11 21.8869C11 22.2747 11.0647 22.7273 11.0647 23.2444C11.1293 23.7616 11.1939 24.2788 11.2586 24.7313C11.3879 25.2485 11.5818 25.6364 11.9697 25.9596C12.2929 26.2828 12.7455 26.4768 13.198 26.5414C14.6848 26.7354 16.8828 26.8 19.8566 26.8C22.8303 26.8 25.0929 26.7354 26.5152 26.5414C26.9677 26.4768 27.4202 26.2828 27.7434 25.9596C28.0667 25.6364 28.3253 25.2485 28.4545 24.7313C28.5838 24.2788 28.6485 23.8263 28.6485 23.2444C28.7131 22.7273 28.7131 22.2747 28.7131 21.8869C28.7131 21.499 28.7131 21.0465 28.7131 20.4C28.7131 19.7535 28.7131 19.2364 28.7131 18.9131ZM23.2828 20.9172L18.1758 24.0848C18.1111 24.1495 17.9818 24.2141 17.8525 24.2141C17.7232 24.2141 17.6586 24.2141 17.5293 24.1495C17.3354 24.0202 17.2061 23.8263 17.2061 23.5677V17.1677C17.2061 16.9091 17.3354 16.7152 17.5293 16.5859C17.7232 16.4566 17.9818 16.4566 18.1758 16.5859L23.2828 19.7535C23.4768 19.8828 23.6061 20.0768 23.6061 20.2707C23.6061 20.4646 23.4768 20.7879 23.2828 20.9172Z" fill="#219653"/>
</svg>
